<svg xmlns="http://www.w3.org/2000/svg" viewBox="0 0 64 64"><path d="M32 2.8C15.9 2.8 2.8 15.9 2.8 32S15.9 61.2 32 61.2 61.2 48.1 61.2 32 48.1 2.8 32 2.8z" opacity=".2" fill-rule="evenodd" clip-rule="evenodd"/><path d="M32 0C14.3 0 0 14.3 0 32s14.3 32 32 32 32-14.3 32-32S49.7 0 32 0zM2.8 32C2.8 15.9 15.9 2.8 32 2.8c7.7 0 14.6 3 19.9 7.8L10.6 51.9C5.7 46.6 2.8 39.7 2.8 32zM32 61.2c-7.7 0-14.6-3-19.9-7.8l41.3-41.3c4.8 5.2 7.8 12.2 7.8 19.9 0 16.1-13.1 29.2-29.2 29.2z" fill="#fff"/><path d="M30.3 11.2l-2.1.6L36.1 39c-5.6-.8-10.5 4-10.1 8.7.1 1.6 1.3 2.9 2 3.5 4 3.4 9.4-.2 11.3-5.7.8-2.3.4-4-.8-8.1l-4.9-16.9c2.5-.8 7.7 1 9.4 3.5 1.1 1.6 1.8 3.9 1.4 5.8-.1.5-.4 2 0 1.7.7-.6.9-1.2 1.3-2.4.3-1.1.4-2.7.3-3.7-1.6-10-12.7-7.1-15.7-14.2z" fill-rule="evenodd" clip-rule="evenodd" fill="#fff"/></svg>