<svg version="1.1" id="Layer_1" xmlns="http://www.w3.org/2000/svg" x="0" y="0" width="600" height="600" xml:space="preserve"><style>.st1{fill:#050405}</style><path d="M7.3 300c0 161.7 131 292.7 292.7 292.7s292.7-131 292.7-292.7c0-161.6-131-292.7-292.7-292.7C138.4 7.3 7.3 138.4 7.3 300zm0 0" fill="#d6b0f7"/><path class="st1" d="M300 600c-80.1 0-155.4-31.2-212.1-87.9C31.2 455.5 0 380.1 0 300S31.2 144.6 87.9 87.9C144.6 31.2 219.9 0 300 0s155.4 31.2 212.1 87.9c56.7 56.7 87.9 132 87.9 212.1s-31.2 155.4-87.9 212.1C455.4 568.8 380.1 600 300 600zm0-585.4c-76.2 0-147.9 29.7-201.8 83.6C44.4 152.1 14.6 223.8 14.6 300c0 76.2 29.7 147.9 83.6 201.8 53.9 53.9 125.5 83.6 201.8 83.6 76.2 0 147.9-29.7 201.8-83.6 53.9-54 83.6-125.5 83.6-201.8 0-76.2-29.7-147.9-83.6-201.8C447.9 44.4 376.2 14.6 300 14.6zm0 0"/><path class="st1" d="M229.7 446.1c-3.3 0-6.5-.8-9.6-2.4-7-3.6-11.3-10.7-11.3-18.6V176.5c0-7.9 4.3-15 11.3-18.6 7-3.6 15.3-3 21.8 1.5l174.7 124.3c5.5 3.9 8.8 10.3 8.8 17.1 0 6.8-3.3 13.2-8.8 17.1L241.8 442.2c-3.6 2.6-7.8 3.9-12.1 3.9zm1-267.6v244.8l172-122.4-172-122.4zm86.5 376c-3.8 0-7.1-3-7.3-6.8-.3-4 2.8-7.5 6.8-7.8 13.1-.9 26.3-2.9 39-5.9 3.9-.9 7.9 1.5 8.8 5.4.9 3.9-1.5 7.9-5.4 8.8-13.5 3.2-27.5 5.3-41.4 6.3h-.5zm102-29.9c-2.6 0-5.1-1.4-6.4-3.8-2-3.6-.7-8 2.9-9.9 43.9-24.1 78.8-60.8 100.7-105.8 1.8-3.7 6.1-5.2 9.8-3.4 3.7 1.8 5.2 6.1 3.4 9.8-23.3 47.8-60.2 86.6-106.7 112.2-1.3.7-2.5.9-3.7.9zm0 0"/></svg>